# xmcd CD database file
#
# Track frame offsets:
#	150
#	22275
#	48522
#	62397
#	105222
#	126300
#
# Disc length: 1988 seconds
#
# Revision: 0
# Processed by: cddbd v1.5.1PL0 Copyright (c) Steve Scherf et al.
# Submitted via: CDex 1.51
#
DISCID=4a07c206
DTITLE=David Arkenstone - Journeys
DYEAR=1900
DGENRE=New Age
TTITLE0=01 Magic Trees
TTITLE1=02 Stones Of Ages
TTITLE2=03 Mountain Shadow
TTITLE3=04 Lost In Paradisw
TTITLE4=05 The Breath Of Autumn
TTITLE5=06 On The Coast
EXTD=
EXTT0=
EXTT1=
EXTT2=
EXTT3=
EXTT4=
EXTT5=
PLAYORDER=
